<svg xmlns="http://www.w3.org/2000/svg" viewBox="0 0 23 23">
    <rect fill="white" width="23" height="23"></rect>
    <path fill="black"
          d="M1,1h1v1h-1zM2,1h1v1h-1zM3,1h1v1h-1zM4,1h1v1h-1zM5,1h1v1h-1zM6,1h1v1h-1zM7,1h1v1h-1zM10,1h1v1h-1zM12,1h1v1h-1zM13,1h1v1h-1zM15,1h1v1h-1zM16,1h1v1h-1zM17,1h1v1h-1zM18,1h1v1h-1zM19,1h1v1h-1zM20,1h1v1h-1zM21,1h1v1h-1zM1,2h1v1h-1zM7,2h1v1h-1zM9,2h1v1h-1zM10,2h1v1h-1zM12,2h1v1h-1zM15,2h1v1h-1zM21,2h1v1h-1zM1,3h1v1h-1zM3,3h1v1h-1zM4,3h1v1h-1zM5,3h1v1h-1zM7,3h1v1h-1zM9,3h1v1h-1zM10,3h1v1h-1zM13,3h1v1h-1zM15,3h1v1h-1zM17,3h1v1h-1zM18,3h1v1h-1zM19,3h1v1h-1zM21,3h1v1h-1zM1,4h1v1h-1zM3,4h1v1h-1zM4,4h1v1h-1zM5,4h1v1h-1zM7,4h1v1h-1zM10,4h1v1h-1zM12,4h1v1h-1zM15,4h1v1h-1zM17,4h1v1h-1zM18,4h1v1h-1zM19,4h1v1h-1zM21,4h1v1h-1zM1,5h1v1h-1zM3,5h1v1h-1zM4,5h1v1h-1zM5,5h1v1h-1zM7,5h1v1h-1zM9,5h1v1h-1zM13,5h1v1h-1zM15,5h1v1h-1zM17,5h1v1h-1zM18,5h1v1h-1zM19,5h1v1h-1zM21,5h1v1h-1zM1,6h1v1h-1zM7,6h1v1h-1zM9,6h1v1h-1zM12,6h1v1h-1zM13,6h1v1h-1zM15,6h1v1h-1zM21,6h1v1h-1zM1,7h1v1h-1zM2,7h1v1h-1zM3,7h1v1h-1zM4,7h1v1h-1zM5,7h1v1h-1zM6,7h1v1h-1zM7,7h1v1h-1zM9,7h1v1h-1zM11,7h1v1h-1zM13,7h1v1h-1zM15,7h1v1h-1zM16,7h1v1h-1zM17,7h1v1h-1zM18,7h1v1h-1zM19,7h1v1h-1zM20,7h1v1h-1zM21,7h1v1h-1zM9,8h1v1h-1zM10,8h1v1h-1zM11,8h1v1h-1zM12,8h1v1h-1zM13,8h1v1h-1zM1,9h1v1h-1zM2,9h1v1h-1zM4,9h1v1h-1zM7,9h1v1h-1zM8,9h1v1h-1zM10,9h1v1h-1zM11,9h1v1h-1zM15,9h1v1h-1zM16,9h1v1h-1zM17,9h1v1h-1zM19,9h1v1h-1zM20,9h1v1h-1zM1,10h1v1h-1zM10,10h1v1h-1zM14,10h1v1h-1zM15,10h1v1h-1zM17,10h1v1h-1zM20,10h1v1h-1zM1,11h1v1h-1zM3,11h1v1h-1zM5,11h1v1h-1zM7,11h1v1h-1zM9,11h1v1h-1zM11,11h1v1h-1zM13,11h1v1h-1zM18,11h1v1h-1zM19,11h1v1h-1zM21,11h1v1h-1zM2,12h1v1h-1zM3,12h1v1h-1zM5,12h1v1h-1zM8,12h1v1h-1zM9,12h1v1h-1zM11,12h1v1h-1zM12,12h1v1h-1zM14,12h1v1h-1zM15,12h1v1h-1zM16,12h1v1h-1zM17,12h1v1h-1zM18,12h1v1h-1zM21,12h1v1h-1zM1,13h1v1h-1zM4,13h1v1h-1zM6,13h1v1h-1zM7,13h1v1h-1zM8,13h1v1h-1zM9,13h1v1h-1zM10,13h1v1h-1zM11,13h1v1h-1zM13,13h1v1h-1zM14,13h1v1h-1zM19,13h1v1h-1zM20,13h1v1h-1zM9,14h1v1h-1zM11,14h1v1h-1zM12,14h1v1h-1zM15,14h1v1h-1zM18,14h1v1h-1zM1,15h1v1h-1zM2,15h1v1h-1zM3,15h1v1h-1zM4,15h1v1h-1zM5,15h1v1h-1zM6,15h1v1h-1zM7,15h1v1h-1zM9,15h1v1h-1zM10,15h1v1h-1zM11,15h1v1h-1zM14,15h1v1h-1zM15,15h1v1h-1zM17,15h1v1h-1zM20,15h1v1h-1zM1,16h1v1h-1zM7,16h1v1h-1zM11,16h1v1h-1zM12,16h1v1h-1zM13,16h1v1h-1zM14,16h1v1h-1zM16,16h1v1h-1zM1,17h1v1h-1zM3,17h1v1h-1zM4,17h1v1h-1zM5,17h1v1h-1zM7,17h1v1h-1zM11,17h1v1h-1zM12,17h1v1h-1zM14,17h1v1h-1zM15,17h1v1h-1zM16,17h1v1h-1zM19,17h1v1h-1zM20,17h1v1h-1zM1,18h1v1h-1zM3,18h1v1h-1zM4,18h1v1h-1zM5,18h1v1h-1zM7,18h1v1h-1zM9,18h1v1h-1zM10,18h1v1h-1zM12,18h1v1h-1zM16,18h1v1h-1zM20,18h1v1h-1zM21,18h1v1h-1zM1,19h1v1h-1zM3,19h1v1h-1zM4,19h1v1h-1zM5,19h1v1h-1zM7,19h1v1h-1zM10,19h1v1h-1zM11,19h1v1h-1zM13,19h1v1h-1zM16,19h1v1h-1zM17,19h1v1h-1zM18,19h1v1h-1zM19,19h1v1h-1zM21,19h1v1h-1zM1,20h1v1h-1zM7,20h1v1h-1zM9,20h1v1h-1zM10,20h1v1h-1zM11,20h1v1h-1zM14,20h1v1h-1zM15,20h1v1h-1zM16,20h1v1h-1zM1,21h1v1h-1zM2,21h1v1h-1zM3,21h1v1h-1zM4,21h1v1h-1zM5,21h1v1h-1zM6,21h1v1h-1zM7,21h1v1h-1zM9,21h1v1h-1zM10,21h1v1h-1zM11,21h1v1h-1zM12,21h1v1h-1zM13,21h1v1h-1zM17,21h1v1h-1zM19,21h1v1h-1zM20,21h1v1h-1z"></path>
</svg>